<?xml version="1.0" encoding="UTF-8"?>
<svg xmlns="http://www.w3.org/2000/svg" xmlns:xlink="http://www.w3.org/1999/xlink" viewBox="0 0 32 32" width="32px" height="32px">
<g id="surface99144401">
<path style=" stroke:none;fill-rule:nonzero;fill:rgb(0%,70.588237%,84.705883%);fill-opacity:1;" d="M 14 0 L 14 2.683594 C 13.152344 2.984375 12.484375 3.648438 12.183594 4.496094 C 8.605469 5.6875 6 9.03125 6 13 L 6.597656 13 C 5.140625 13.875 4 15.1875 4 17 C 4 18.8125 5.140625 20.125 6.597656 21 L 6 21 L 6 30 L 10 30 L 10 29 C 10 27.328125 11.328125 26 13 26 L 17 26 C 18.671875 26 20 27.328125 20 29 L 20 30 L 24 30 L 24 21 L 23.402344 21 C 24.859375 20.125 26 18.8125 26 17 C 26 15.1875 24.859375 13.875 23.402344 13 L 24 13 C 24 9.03125 21.394531 5.6875 17.816406 4.496094 C 17.515625 3.648438 16.847656 2.984375 16 2.683594 L 16 0 Z M 15 6 C 18.652344 6 21.535156 8.800781 21.871094 12.363281 C 21.550781 12.296875 21.339844 12 21 12 L 9 12 C 8.660156 12 8.449219 12.296875 8.128906 12.363281 C 8.464844 8.800781 11.347656 6 15 6 Z M 9 14 L 21 14 C 22.671875 14 24 15.328125 24 17 C 24 18.671875 22.671875 20 21 20 L 9 20 C 7.328125 20 6 18.671875 6 17 C 6 15.328125 7.328125 14 9 14 Z M 10 16 L 10 18 L 12 18 L 12 16 Z M 18 16 L 18 18 L 20 18 L 20 16 Z M 8 21.585938 C 8.363281 21.671875 8.609375 22 9 22 L 21 22 C 21.390625 22 21.636719 21.671875 22 21.585938 L 22 29 C 22 26.25 19.75 24 17 24 L 13 24 C 10.25 24 8 26.25 8 29 Z M 8 21.585938 "/>
</g>
</svg>
